# Blender v2.93.4 OBJ File: 'alimentoT.blend'
# www.blender.org
mtllib alimentos.mtl
o Cube
v -4.248856 0.767100 -0.821809
v -4.248856 0.767100 0.821809
v -4.248856 0.000000 -1.000000
v -4.248856 0.000000 1.000000
v -4.248856 1.000000 -1.000000
v -4.248856 1.000000 1.000000
v -4.248856 0.232900 -0.821809
v -4.248856 0.232900 0.821809
v -4.329386 0.232900 -0.821809
v -4.329386 0.232900 0.821809
v -4.329386 0.767100 -0.821809
v -4.329386 0.767100 0.821809
v -4.398063 1.000000 -0.850793
v -6.099649 1.000000 -0.850793
v -6.099649 1.000000 0.850793
v -4.398063 1.000000 0.850793
v -6.099649 0.930981 -0.850793
v -4.398063 0.930981 -0.850793
v -4.398063 0.930981 0.850793
v -6.099649 0.930981 0.850793
v -6.248329 0.232900 -0.821809
v -6.248329 0.232900 0.821809
v -6.248856 1.000000 -1.000000
v -6.248856 1.000000 1.000000
v -6.248856 0.000000 -1.000000
v -6.248856 0.000000 1.000000
v -6.248329 0.767100 -0.821809
v -6.248329 0.767100 0.821809
v -6.167799 0.767100 -0.821809
v -6.167799 0.767100 0.821809
v -6.167799 0.232900 -0.821809
v -6.167799 0.232900 0.821809
v -4.426508 0.231709 1.000000
v -4.426508 0.768291 1.000000
v -6.071204 0.768291 1.000000
v -6.071204 0.231709 1.000000
v -4.426508 0.231709 0.957740
v -6.071204 0.231709 0.957740
v -4.426508 0.768291 0.957740
v -6.071204 0.768291 0.957740
v -4.426508 0.768291 -0.999881
v -4.426508 0.231709 -0.999881
v -6.071204 0.231709 -0.999881
v -6.071204 0.768291 -0.999881
v -4.426508 0.768291 -0.957621
v -6.071204 0.768291 -0.957621
v -4.426508 0.231709 -0.957621
v -6.071204 0.231709 -0.957621
vt 0.856349 0.731349
vt 0.643651 0.731349
vt 0.643651 0.731349
vt 0.856349 0.731349
vt 0.602793 0.977793
vt 0.522206 0.977793
vt 0.522206 0.977793
vt 0.602793 0.977793
vt 0.532201 0.717799
vt 0.532201 0.532201
vt 0.532201 0.532201
vt 0.532201 0.717799
vt 0.592799 0.717799
vt 0.592799 0.532201
vt 0.625000 0.500000
vt 0.625000 0.750000
vt 0.500000 0.500000
vt 0.500000 0.750000
vt 0.592799 0.532201
vt 0.592799 0.717799
vt 0.875000 0.500000
vt 0.856349 0.518651
vt 0.643651 0.518651
vt 0.875000 0.750000
vt 0.643651 0.518651
vt 0.856349 0.518651
vt 0.532201 0.717799
vt 0.532201 0.532201
vt 0.532201 0.532201
vt 0.532201 0.717799
vt 0.592799 0.717799
vt 0.592799 0.532201
vt 0.625000 0.500000
vt 0.625000 0.750000
vt 0.500000 0.500000
vt 0.500000 0.750000
vt 0.592799 0.532201
vt 0.592799 0.717799
vt 0.602794 0.772207
vt 0.522206 0.772207
vt 0.625000 1.000000
vt 0.500000 1.000000
vt 0.522206 0.772207
vt 0.602794 0.772207
vt 0.602793 0.977793
vt 0.522206 0.977793
vt 0.522206 0.977793
vt 0.602793 0.977793
vt 0.500000 0.750000
vt 0.625000 0.750000
vt 0.602794 0.772207
vt 0.522206 0.772207
vt 0.625000 1.000000
vt 0.500000 1.000000
vt 0.522206 0.772207
vt 0.602794 0.772207
vn 0.0000 0.0000 -1.0000
vn 1.0000 0.0000 0.0000
vn 0.0000 1.0000 0.0000
vn 0.0000 -1.0000 0.0000
vn 0.0000 0.0000 1.0000
vn -1.0000 0.0000 0.0000
vn -1.0000 0.0023 0.0000
vn -1.0000 0.0000 0.0030
vn -1.0000 0.0000 -0.0030
vn -1.0000 -0.0023 0.0000
vn -0.0007 0.0000 -1.0000
vn 0.0000 0.0005 -1.0000
vn 0.0007 0.0000 -1.0000
vn 0.0000 -0.0005 -1.0000
usemtl Material
s off
f 15/1/1 16/2/1 19/3/1 20/4/1
f 35/5/2 36/6/2 38/7/2 40/8/2
f 8/9/3 7/10/3 9/11/3 10/12/3
f 2/13/2 1/14/2 5/15/2 6/16/2
f 1/14/2 7/10/2 3/17/2 5/15/2
f 8/9/2 2/13/2 6/16/2 4/18/2
f 7/10/2 8/9/2 4/18/2 3/17/2
f 9/11/2 11/19/2 12/20/2 10/12/2
f 2/13/1 8/9/1 10/12/1 12/20/1
f 1/14/4 2/13/4 12/20/4 11/19/4
f 7/10/5 1/14/5 11/19/5 9/11/5
f 5/15/3 23/21/3 14/22/3 13/23/3
f 23/21/3 24/24/3 15/1/3 14/22/3
f 24/24/3 6/16/3 16/2/3 15/1/3
f 6/16/3 5/15/3 13/23/3 16/2/3
f 18/25/3 17/26/3 20/4/3 19/3/3
f 16/2/6 13/23/6 18/25/6 19/3/6
f 14/22/2 15/1/2 20/4/2 17/26/2
f 13/23/5 14/22/5 17/26/5 18/25/5
f 28/27/4 27/28/4 29/29/4 30/30/4
f 22/31/7 21/32/7 25/33/7 26/34/7
f 21/32/8 27/28/8 23/35/8 25/33/8
f 28/27/9 22/31/9 26/34/9 24/36/9
f 27/28/10 28/27/10 24/36/10 23/35/10
f 29/29/6 31/37/6 32/38/6 30/30/6
f 22/31/1 28/27/1 30/30/1 32/38/1
f 21/32/3 22/31/3 32/38/3 31/37/3
f 27/28/5 21/32/5 31/37/5 29/29/5
f 4/18/5 6/16/5 34/39/5 33/40/5
f 6/16/5 24/41/5 35/5/5 34/39/5
f 24/41/5 26/42/5 36/6/5 35/5/5
f 26/42/5 4/18/5 33/40/5 36/6/5
f 37/43/5 39/44/5 40/8/5 38/7/5
f 33/40/6 34/39/6 39/44/6 37/43/6
f 34/39/4 35/5/4 40/8/4 39/44/4
f 36/6/3 33/40/3 37/43/3 38/7/3
f 43/45/2 44/46/2 46/47/2 48/48/2
f 5/49/11 3/50/11 42/51/11 41/52/11
f 3/50/12 25/53/12 43/45/12 42/51/12
f 25/53/13 23/54/13 44/46/13 43/45/13
f 23/54/14 5/49/14 41/52/14 44/46/14
f 45/55/1 47/56/1 48/48/1 46/47/1
f 41/52/6 42/51/6 47/56/6 45/55/6
f 42/51/3 43/45/3 48/48/3 47/56/3
f 44/46/4 41/52/4 45/55/4 46/47/4
f 4/18/4 26/42/4 25/33/4 3/50/4
