# Blender v2.93.4 OBJ File: 'estacionP.blend'
# www.blender.org
mtllib estacionP.mtl
o Cube
v 0.937712 0.851315 -0.937712
v 0.937712 0.851315 0.937712
v -0.937712 0.851315 -0.937712
v -0.937712 0.851315 0.937712
v 1.000000 0.000000 -1.000000
v -1.000000 0.000000 1.000000
v 1.000000 0.000000 1.000000
v -1.000000 0.000000 -1.000000
v 1.000000 0.851315 1.000000
v -1.000000 0.851315 1.000000
v 1.000000 0.851315 -1.000000
v -1.000000 0.851315 -1.000000
v 0.860223 0.999648 0.860223
v -0.860223 0.999648 0.860223
v 0.860223 0.999648 -0.860223
v -0.860223 0.999648 -0.860223
v 0.000000 1.000000 -0.820870
v -0.160144 1.000000 -0.805098
v -0.314133 1.000000 -0.758385
v -0.456051 1.000000 -0.682529
v -0.580443 1.000000 -0.580443
v -0.682529 1.000000 -0.456051
v -0.758385 1.000000 -0.314133
v -0.805098 1.000000 -0.160144
v -0.820870 1.000000 -0.000000
v -0.805098 1.000000 0.160144
v -0.758385 1.000000 0.314133
v -0.682529 1.000000 0.456051
v -0.580443 1.000000 0.580443
v -0.456051 1.000000 0.682529
v -0.314133 1.000000 0.758385
v -0.160144 1.000000 0.805098
v 0.000000 1.000000 0.820870
v 0.160144 1.000000 0.805097
v 0.314134 1.000000 0.758385
v 0.456052 1.000000 0.682528
v 0.580443 1.000000 0.580443
v 0.682529 1.000000 0.456051
v 0.758386 1.000000 0.314133
v 0.805098 1.000000 0.160143
v 0.820870 1.000000 -0.000001
v 0.805097 1.000000 -0.160145
v 0.758385 1.000000 -0.314134
v 0.682528 1.000000 -0.456052
v 0.580442 1.000000 -0.580444
v 0.456050 1.000000 -0.682529
v 0.314132 1.000000 -0.758386
v 0.160143 1.000000 -0.805098
v 0.000000 0.999648 0.860223
v 0.860223 0.999648 0.000000
v -0.860223 0.999648 0.000000
v 0.000000 0.999648 -0.860223
v -0.080072 1.000000 -0.812984
v -0.237139 1.000000 -0.781741
v -0.385092 1.000000 -0.720457
v -0.518247 1.000000 -0.631486
v -0.631486 1.000000 -0.518247
v -0.720457 1.000000 -0.385092
v -0.781741 1.000000 -0.237139
v -0.812984 1.000000 -0.080072
v -0.812984 1.000000 0.080072
v -0.781741 1.000000 0.237139
v -0.720457 1.000000 0.385092
v -0.631486 1.000000 0.518247
v -0.518247 1.000000 0.631486
v -0.385092 1.000000 0.720457
v -0.237139 1.000000 0.781741
v -0.080072 1.000000 0.812984
v 0.080072 1.000000 0.812984
v 0.237139 1.000000 0.781741
v 0.385093 1.000000 0.720457
v 0.518247 1.000000 0.631486
v 0.631486 1.000000 0.518247
v 0.720457 1.000000 0.385092
v 0.781742 1.000000 0.237138
v 0.812984 1.000000 0.080071
v 0.812984 1.000000 -0.080073
v 0.781741 1.000000 -0.237140
v 0.720457 1.000000 -0.385093
v 0.631485 1.000000 -0.518248
v 0.518246 1.000000 -0.631487
v 0.385091 1.000000 -0.720458
v 0.237137 1.000000 -0.781742
v 0.080071 1.000000 -0.812984
v -0.746447 0.926149 -0.148478
v -0.135867 0.866090 -0.683051
v -0.129685 0.852299 -0.651969
v -0.134124 0.859195 -0.674286
v -0.131861 0.854147 -0.662909
v 0.000000 0.852299 -0.664742
v -0.000000 0.866090 -0.696433
v -0.000000 0.854147 -0.675897
v -0.000000 0.859195 -0.687496
v -0.266513 0.866090 -0.643420
v -0.254386 0.852299 -0.614141
v -0.263093 0.859195 -0.635164
v -0.258654 0.854147 -0.624447
v -0.386917 0.866090 -0.579063
v -0.369311 0.852299 -0.552713
v -0.381952 0.859195 -0.571632
v -0.375508 0.854147 -0.561987
v -0.492452 0.866090 -0.492452
v -0.470043 0.852299 -0.470044
v -0.486133 0.859195 -0.486133
v -0.477931 0.854147 -0.477931
v -0.579063 0.866090 -0.386917
v -0.552713 0.852299 -0.369311
v -0.571632 0.859195 -0.381952
v -0.561987 0.854147 -0.375508
v -0.643420 0.866090 -0.266513
v -0.614141 0.852299 -0.254386
v -0.635164 0.859195 -0.263093
v -0.624447 0.854147 -0.258654
v -0.683849 0.865294 -0.136026
v -0.651969 0.852299 -0.129685
v -0.674685 0.858797 -0.134203
v -0.663016 0.854040 -0.131882
v -0.696433 0.866090 -0.000000
v -0.664742 0.852299 -0.000000
v -0.687496 0.859195 -0.000000
v -0.675896 0.854147 -0.000000
v -0.683051 0.866090 0.135867
v -0.651969 0.852299 0.129685
v -0.674286 0.859195 0.134124
v -0.662909 0.854147 0.131861
v -0.643420 0.866090 0.266513
v -0.614141 0.852299 0.254385
v -0.635164 0.859195 0.263093
v -0.624447 0.854147 0.258654
v -0.579063 0.866090 0.386917
v -0.552713 0.852299 0.369311
v -0.571632 0.859195 0.381952
v -0.561987 0.854147 0.375508
v -0.492452 0.866090 0.492452
v -0.470043 0.852299 0.470043
v -0.486133 0.859195 0.486133
v -0.477931 0.854147 0.477931
v -0.386917 0.866090 0.579063
v -0.369311 0.852299 0.552713
v -0.381952 0.859195 0.571632
v -0.375508 0.854147 0.561987
v -0.266513 0.866090 0.643420
v -0.254385 0.852299 0.614141
v -0.263093 0.859195 0.635164
v -0.258654 0.854147 0.624447
v -0.135867 0.866090 0.683051
v -0.129685 0.852299 0.651969
v -0.134124 0.859195 0.674286
v -0.131861 0.854147 0.662909
v 0.000000 0.866090 0.696433
v 0.000000 0.852299 0.664742
v 0.000000 0.859195 0.687496
v 0.000000 0.854147 0.675896
v 0.135868 0.866090 0.683051
v 0.129685 0.852299 0.651969
v 0.134124 0.859195 0.674286
v 0.131861 0.854147 0.662909
v 0.266514 0.866090 0.643420
v 0.254386 0.852299 0.614141
v 0.263094 0.859195 0.635163
v 0.258655 0.854147 0.624447
v 0.386918 0.866090 0.579062
v 0.369311 0.852299 0.552712
v 0.381953 0.859195 0.571632
v 0.375508 0.854147 0.561987
v 0.492453 0.866090 0.492452
v 0.470044 0.852299 0.470043
v 0.486133 0.859195 0.486133
v 0.477931 0.854147 0.477931
v 0.579063 0.866090 0.386917
v 0.552713 0.852299 0.369310
v 0.571632 0.859195 0.381952
v 0.561988 0.854147 0.375508
v 0.643420 0.866090 0.266513
v 0.614142 0.852299 0.254385
v 0.635164 0.859195 0.263093
v 0.624447 0.854147 0.258654
v 0.683051 0.866090 0.135867
v 0.651969 0.852299 0.129684
v 0.674286 0.859195 0.134123
v 0.662909 0.854147 0.131860
v 0.696433 0.866090 -0.000001
v 0.664742 0.852299 -0.000001
v 0.687496 0.859195 -0.000001
v 0.675896 0.854147 -0.000001
v 0.683051 0.866090 -0.135868
v 0.651969 0.852299 -0.129685
v 0.674286 0.859195 -0.134125
v 0.662909 0.854147 -0.131862
v 0.643420 0.866090 -0.266514
v 0.614141 0.852299 -0.254386
v 0.635163 0.859195 -0.263094
v 0.624447 0.854147 -0.258655
v 0.579062 0.866090 -0.386918
v 0.552712 0.852299 -0.369312
v 0.571632 0.859195 -0.381953
v 0.561987 0.854147 -0.375509
v 0.492452 0.866090 -0.492453
v 0.470043 0.852299 -0.470044
v 0.486133 0.859195 -0.486134
v 0.477930 0.854147 -0.477932
v 0.386916 0.866090 -0.579063
v 0.369310 0.852299 -0.552713
v 0.381952 0.859195 -0.571633
v 0.375507 0.854147 -0.561988
v 0.266512 0.866090 -0.643420
v 0.254385 0.852299 -0.614142
v 0.263092 0.859195 -0.635164
v 0.258653 0.854147 -0.624447
v 0.135866 0.866090 -0.683051
v 0.129684 0.852299 -0.651969
v 0.134123 0.859195 -0.674286
v 0.131860 0.854147 -0.662909
vt 0.500000 0.750000
vt 0.625000 0.750000
vt 0.625000 1.000000
vt 0.500000 1.000000
vt 0.500000 0.000000
vt 0.625000 0.000000
vt 0.625000 0.250000
vt 0.500000 0.250000
vt 0.500000 0.500000
vt 0.625000 0.500000
vt 0.634280 0.740720
vt 0.865720 0.740720
vt 0.875000 0.750000
vt 0.634280 0.509280
vt 0.865720 0.509280
vt 0.875000 0.500000
vt 0.865720 0.740720
vt 0.865720 0.625000
vt 0.865720 0.509280
vt 0.634280 0.740720
vt 0.750000 0.740720
vt 0.750000 0.509280
vt 0.634280 0.509280
vt 0.634280 0.625000
vt 0.000000 0.000000
vt 0.000000 0.000000
vt 0.000000 0.000000
vt 0.000000 0.000000
vt 0.000000 0.000000
vt 0.000000 0.000000
vt 0.000000 0.000000
vt 0.000000 0.000000
vt 0.000000 0.000000
vt 0.000000 0.000000
vt 0.000000 0.000000
vt 0.000000 0.000000
vt 0.000000 0.000000
vt 0.000000 0.000000
vt 0.000000 0.000000
vt 0.000000 0.000000
vt 0.000000 0.000000
vt 0.000000 0.000000
vt 0.000000 0.000000
vt 0.000000 0.000000
vt 0.000000 0.000000
vt 0.000000 0.000000
vt 0.000000 0.000000
vt 0.000000 0.000000
vt 0.000000 0.000000
vt 0.000000 0.000000
vt 0.000000 0.000000
vt 0.000000 0.000000
vt 0.000000 0.000000
vt 0.000000 0.000000
vt 0.000000 0.000000
vt 0.000000 0.000000
vt 0.000000 0.000000
vt 0.000000 0.000000
vt 0.000000 0.000000
vt 0.000000 0.000000
vt 0.000000 0.000000
vt 0.000000 0.000000
vt 0.000000 0.000000
vt 0.000000 0.000000
vt 0.000000 0.000000
vt 0.000000 0.000000
vt 0.000000 0.000000
vt 0.000000 0.000000
vt 0.000000 0.000000
vt 0.000000 0.000000
vt 0.000000 0.000000
vt 0.000000 0.000000
vt 0.000000 0.000000
vt 0.000000 0.000000
vt 0.000000 0.000000
vt 0.000000 0.000000
vt 0.000000 0.000000
vt 0.000000 0.000000
vt 0.000000 0.000000
vt 0.000000 0.000000
vt 0.000000 0.000000
vt 0.000000 0.000000
vt 0.000000 0.000000
vt 0.000000 0.000000
vt 0.000000 0.000000
vt 0.000000 0.000000
vt 0.000000 0.000000
vt 0.000000 0.000000
vt 0.000000 0.000000
vt 0.000000 0.000000
vt 0.000000 0.000000
vt 0.000000 0.000000
vt 0.000000 0.000000
vt 0.000000 0.000000
vt 0.000000 0.000000
vt 0.000000 0.000000
vt 0.000000 0.000000
vt 0.000000 0.000000
vt 0.000000 0.000000
vt 0.000000 0.000000
vt 0.000000 0.000000
vt 0.000000 0.000000
vt 0.000000 0.000000
vt 0.000000 0.000000
vt 0.000000 0.000000
vt 0.000000 0.000000
vt 0.000000 0.000000
vt 0.000000 0.000000
vt 0.000000 0.000000
vt 0.000000 0.000000
vt 0.000000 0.000000
vt 0.000000 0.000000
vt 0.000000 0.000000
vt 0.000000 0.000000
vt 0.000000 0.000000
vt 0.000000 0.000000
vt 0.000000 0.000000
vt 0.000000 0.000000
vt 0.000000 0.000000
vt 0.000000 0.000000
vt 0.000000 0.000000
vt 0.000000 0.000000
vt 0.000000 0.000000
vt 0.000000 0.000000
vt 0.000000 0.000000
vt 0.000000 0.000000
vt 0.000000 0.000000
vt 0.000000 0.000000
vt 0.000000 0.000000
vt 0.000000 0.000000
vt 0.000000 0.000000
vt 0.000000 0.000000
vt 0.000000 0.000000
vt 0.000000 0.000000
vt 0.000000 0.000000
vt 0.000000 0.000000
vt 0.000000 0.000000
vt 0.000000 0.000000
vt 0.000000 0.000000
vt 0.000000 0.000000
vt 0.000000 0.000000
vt 0.000000 0.000000
vt 0.000000 0.000000
vt 0.000000 0.000000
vt 0.000000 0.000000
vt 0.000000 0.000000
vt 0.000000 0.000000
vt 0.000000 0.000000
vt 0.000000 0.000000
vt 0.000000 0.000000
vt 0.000000 0.000000
vt 0.000000 0.000000
vt 0.000000 0.000000
vt 0.000000 0.000000
vt 0.000000 0.000000
vt 0.000000 0.000000
vt 0.000000 0.000000
vt 0.000000 0.000000
vt 0.000000 0.000000
vt 0.000000 0.000000
vt 0.000000 0.000000
vt 0.000000 0.000000
vt 0.000000 0.000000
vt 0.000000 0.000000
vt 0.000000 0.000000
vt 0.000000 0.000000
vt 0.000000 0.000000
vt 0.000000 0.000000
vt 0.000000 0.000000
vt 0.000000 0.000000
vt 0.000000 0.000000
vt 0.000000 0.000000
vt 0.000000 0.000000
vt 0.000000 0.000000
vt 0.000000 0.000000
vt 0.000000 0.000000
vt 0.000000 0.000000
vt 0.000000 0.000000
vt 0.000000 0.000000
vt 0.000000 0.000000
vt 0.000000 0.000000
vt 0.000000 0.000000
vt 0.000000 0.000000
vt 0.000000 0.000000
vt 0.000000 0.000000
vt 0.000000 0.000000
vt 0.000000 0.000000
vt 0.000000 0.000000
vt 0.000000 0.000000
vt 0.000000 0.000000
vt 0.000000 0.000000
vt 0.000000 0.000000
vt 0.000000 0.000000
vt 0.000000 0.000000
vt 0.000000 0.000000
vt 0.000000 0.000000
vt 0.000000 0.000000
vt 0.000000 0.000000
vt 0.000000 0.000000
vt 0.000000 0.000000
vt 0.000000 0.000000
vt 0.000000 0.000000
vt 0.000000 0.000000
vt 0.000000 0.000000
vt 0.000000 0.000000
vt 0.000000 0.000000
vt 0.000000 0.000000
vt 0.000000 0.000000
vt 0.000000 0.000000
vt 0.000000 0.000000
vt 0.000000 0.000000
vt 0.000000 0.000000
vt 0.000000 0.000000
vt 0.000000 0.000000
vt 0.000000 0.000000
vt 0.000000 0.000000
vt 0.000000 0.000000
vn 0.0000 0.0000 1.0000
vn -1.0000 0.0000 0.0000
vn 1.0000 0.0000 0.0000
vn 0.0000 0.0000 -1.0000
vn 0.0000 -1.0000 0.0000
vn 0.0000 1.0000 0.0000
vn -0.8863 0.4630 0.0000
vn 0.0000 0.4630 0.8863
vn 0.0000 0.4630 -0.8863
vn 0.8863 0.4630 0.0000
vn 0.2131 0.6790 0.7026
vn -0.7306 0.6790 0.0720
vn 0.5675 0.6790 -0.4658
vn -0.7026 0.6790 0.2131
vn 0.4658 0.6790 -0.5675
vn -0.6475 0.6790 0.3461
vn 0.3461 0.6790 -0.6475
vn -0.5675 0.6790 0.4658
vn 0.2131 0.6790 -0.7026
vn -0.4658 0.6790 0.5675
vn 0.0720 0.6790 -0.7306
vn -0.0720 0.6790 0.7306
vn -0.3461 0.6790 0.6475
vn -0.0720 0.6790 -0.7306
vn 0.4658 0.6790 0.5675
vn -0.2131 0.6790 0.7026
vn -0.2131 0.6790 -0.7026
vn 0.5675 0.6790 0.4658
vn -0.3461 0.6790 -0.6475
vn 0.6475 0.6790 0.3461
vn 0.3461 0.6790 0.6475
vn -0.4658 0.6790 -0.5675
vn 0.6905 0.6831 0.2380
vn -0.5675 0.6790 -0.4658
vn 0.7451 0.6275 0.2260
vn -0.6475 0.6790 -0.3461
vn 0.7306 0.6790 -0.0720
vn -0.7026 0.6790 -0.2131
vn 0.7026 0.6790 -0.2131
vn -0.7306 0.6790 -0.0720
vn 0.6475 0.6790 -0.3461
vn 0.7749 0.6275 0.0763
vn 0.7290 0.6831 0.0444
vn -0.0014 1.0000 0.0014
vn 0.0014 1.0000 0.0014
vn 0.0014 1.0000 -0.0014
vn -0.0014 1.0000 -0.0014
vn 0.0161 0.9864 0.1634
vn 0.0393 0.9162 0.3987
vn 0.0601 0.7903 0.6098
vn 0.0477 0.9864 0.1571
vn 0.1163 0.9162 0.3834
vn 0.1779 0.7903 0.5864
vn 0.0774 0.9864 0.1448
vn 0.1889 0.9162 0.3533
vn 0.2888 0.7903 0.5404
vn 0.1042 0.9864 0.1269
vn 0.2542 0.9162 0.3097
vn 0.3887 0.7903 0.4737
vn 0.1269 0.9864 0.1042
vn 0.3097 0.9162 0.2542
vn 0.4737 0.7903 0.3887
vn 0.1448 0.9864 0.0774
vn 0.3533 0.9162 0.1889
vn 0.5404 0.7903 0.2888
vn 0.1518 0.9873 0.0465
vn 0.3693 0.9222 0.1146
vn 0.5655 0.8053 0.1780
vn 0.1581 0.9873 0.0151
vn 0.3850 0.9222 0.0354
vn 0.5906 0.8053 0.0519
vn 0.1634 0.9864 -0.0161
vn 0.3987 0.9162 -0.0393
vn 0.6098 0.7903 -0.0601
vn 0.1571 0.9864 -0.0477
vn 0.3834 0.9162 -0.1163
vn 0.5864 0.7903 -0.1779
vn 0.1448 0.9864 -0.0774
vn 0.3533 0.9162 -0.1889
vn 0.5404 0.7903 -0.2888
vn 0.1269 0.9864 -0.1042
vn 0.3097 0.9162 -0.2542
vn 0.4737 0.7903 -0.3887
vn 0.1042 0.9864 -0.1269
vn 0.2542 0.9162 -0.3097
vn 0.3887 0.7903 -0.4736
vn 0.0774 0.9864 -0.1448
vn 0.1889 0.9162 -0.3533
vn 0.2888 0.7903 -0.5404
vn 0.0477 0.9864 -0.1571
vn 0.1163 0.9162 -0.3834
vn 0.1779 0.7903 -0.5864
vn 0.0161 0.9864 -0.1634
vn 0.0393 0.9162 -0.3987
vn 0.0601 0.7903 -0.6098
vn -0.0161 0.9864 -0.1634
vn -0.0393 0.9162 -0.3987
vn -0.0601 0.7903 -0.6098
vn -0.0477 0.9864 -0.1571
vn -0.1163 0.9162 -0.3834
vn -0.1779 0.7903 -0.5864
vn -0.0774 0.9864 -0.1448
vn -0.1889 0.9162 -0.3533
vn -0.2888 0.7903 -0.5404
vn -0.1042 0.9864 -0.1269
vn -0.2542 0.9162 -0.3097
vn -0.3887 0.7903 -0.4737
vn -0.1269 0.9864 -0.1042
vn -0.3097 0.9162 -0.2542
vn -0.4737 0.7903 -0.3887
vn -0.1448 0.9864 -0.0774
vn -0.3533 0.9162 -0.1889
vn -0.5404 0.7903 -0.2888
vn -0.1571 0.9864 -0.0477
vn -0.3834 0.9162 -0.1163
vn -0.5864 0.7903 -0.1779
vn -0.1634 0.9864 -0.0161
vn -0.3987 0.9162 -0.0393
vn -0.6098 0.7903 -0.0601
vn -0.1634 0.9864 0.0161
vn -0.3987 0.9162 0.0393
vn -0.6098 0.7903 0.0601
vn -0.1571 0.9864 0.0477
vn -0.3834 0.9162 0.1163
vn -0.5864 0.7903 0.1779
vn -0.1448 0.9864 0.0774
vn -0.3533 0.9162 0.1889
vn -0.5404 0.7903 0.2888
vn -0.1269 0.9864 0.1042
vn -0.3097 0.9162 0.2542
vn -0.4737 0.7903 0.3887
vn -0.1042 0.9864 0.1269
vn -0.2542 0.9162 0.3097
vn -0.3887 0.7903 0.4737
vn -0.0774 0.9864 0.1448
vn -0.1889 0.9162 0.3533
vn -0.2888 0.7903 0.5404
vn -0.0477 0.9864 0.1571
vn -0.1163 0.9162 0.3834
vn -0.1779 0.7903 0.5864
vn -0.0161 0.9864 0.1634
vn -0.0393 0.9162 0.3987
vn -0.0601 0.7903 0.6098
vn 0.0720 0.6790 0.7306
usemtl Material
s off
f 7/1/1 9/2/1 10/3/1 6/4/1
f 6/5/2 10/6/2 12/7/2 8/8/2
f 5/9/3 11/10/3 9/2/3 7/1/3
f 8/8/4 12/7/4 11/10/4 5/9/4
f 8/8/5 5/9/5 7/1/5 6/5/5
f 2/11/6 4/12/6 10/13/6 9/2/6
f 1/14/6 2/11/6 9/2/6 11/10/6
f 4/12/6 3/15/6 12/16/6 10/13/6
f 3/15/6 1/14/6 11/10/6 12/16/6
usemtl Material.001
f 3/15/7 4/12/7 14/17/7 51/18/7 16/19/7
f 4/12/8 2/11/8 13/20/8 49/21/8 14/17/8
f 1/14/9 3/15/9 16/19/9 52/22/9 15/23/9
f 2/11/10 1/14/10 15/23/10 50/24/10 13/20/10
f 18/25/11 54/26/11 19/27/11 94/28/11 86/29/11
f 41/30/12 77/31/12 42/32/12 186/33/12 182/34/12
f 28/35/13 64/36/13 29/37/13 134/38/13 130/39/13
f 42/32/14 78/40/14 43/41/14 190/42/14 186/33/14
f 29/37/15 65/43/15 30/44/15 138/45/15 134/38/15
f 43/41/16 79/46/16 44/47/16 194/48/16 190/42/16
f 30/44/17 66/49/17 31/50/17 142/51/17 138/45/17
f 44/47/18 80/52/18 45/53/18 198/54/18 194/48/18
f 31/50/19 67/55/19 32/56/19 146/57/19 142/51/19
f 87/58/6 95/59/6 99/60/6 103/61/6 107/62/6 111/63/6 115/64/6 119/65/6 123/66/6 127/67/6 131/68/6 135/69/6 139/70/6 143/71/6 147/72/6 151/73/6 155/74/6 159/75/6 163/76/6 167/77/6 171/78/6 175/79/6 179/80/6 183/81/6 187/82/6 191/83/6 195/84/6 199/85/6 203/86/6 207/87/6 211/88/6 90/89/6
f 45/53/20 81/90/20 46/91/20 202/92/20 198/54/20
f 32/56/21 68/93/21 33/94/21 150/95/21 146/57/21
f 48/96/22 84/97/22 17/98/22 91/99/22 210/100/22
f 46/91/23 82/101/23 47/102/23 206/103/23 202/92/23
f 33/94/24 69/104/24 34/105/24 154/106/24 150/95/24
f 20/107/25 56/108/25 21/109/25 102/110/25 98/111/25
f 47/102/26 83/112/26 48/96/26 210/100/26 206/103/26
f 34/105/27 70/113/27 35/114/27 158/115/27 154/106/27
f 21/109/28 57/116/28 22/117/28 106/118/28 102/110/28
f 35/114/29 71/119/29 36/120/29 162/121/29 158/115/29
f 22/117/30 58/122/30 23/123/30 110/124/30 106/118/30
f 19/27/31 55/125/31 20/107/31 98/111/31 94/28/31
f 36/120/32 72/126/32 37/127/32 166/128/32 162/121/32
f 23/123/33 59/129/33 85/130/33 114/131/33 110/124/33
f 37/127/34 73/132/34 38/133/34 170/134/34 166/128/34
f 59/129/35 24/135/35 85/130/35
f 38/133/36 74/136/36 39/137/36 174/138/36 170/134/36
f 25/139/37 61/140/37 26/141/37 122/142/37 118/143/37
f 39/137/38 75/144/38 40/145/38 178/146/38 174/138/38
f 26/141/39 62/147/39 27/148/39 126/149/39 122/142/39
f 40/145/40 76/150/40 41/30/40 182/34/40 178/146/40
f 27/148/41 63/151/41 28/35/41 130/39/41 126/149/41
f 24/135/42 60/152/42 85/130/42
f 60/152/43 25/139/43 118/143/43 114/131/43 85/130/43
f 14/17/44 49/21/44 33/94/44 68/93/44 32/56/44 67/55/44 31/50/44 66/49/44 30/44/44 65/43/44 29/37/44 64/36/44 28/35/44 63/151/44 27/148/44 62/147/44 26/141/44 61/140/44 25/139/44 51/18/44
f 13/20/45 50/24/45 41/30/45 76/150/45 40/145/45 75/144/45 39/137/45 74/136/45 38/133/45 73/132/45 37/127/45 72/126/45 36/120/45 71/119/45 35/114/45 70/113/45 34/105/45 69/104/45 33/94/45 49/21/45
f 15/23/46 52/22/46 17/98/46 84/97/46 48/96/46 83/112/46 47/102/46 82/101/46 46/91/46 81/90/46 45/53/46 80/52/46 44/47/46 79/46/46 43/41/46 78/40/46 42/32/46 77/31/46 41/30/46 50/24/46
f 16/19/47 51/18/47 25/139/47 60/152/47 24/135/47 59/129/47 23/123/47 58/122/47 22/117/47 57/116/47 21/109/47 56/108/47 20/107/47 55/125/47 19/27/47 54/26/47 18/25/47 53/153/47 17/98/47 52/22/47
f 87/58/48 90/89/48 92/154/48 89/155/48
f 89/155/49 92/154/49 93/156/49 88/157/49
f 88/157/50 93/156/50 91/99/50 86/29/50
f 95/59/51 87/58/51 89/155/51 97/158/51
f 97/158/52 89/155/52 88/157/52 96/159/52
f 96/159/53 88/157/53 86/29/53 94/28/53
f 99/60/54 95/59/54 97/158/54 101/160/54
f 101/160/55 97/158/55 96/159/55 100/161/55
f 100/161/56 96/159/56 94/28/56 98/111/56
f 103/61/57 99/60/57 101/160/57 105/162/57
f 105/162/58 101/160/58 100/161/58 104/163/58
f 104/163/59 100/161/59 98/111/59 102/110/59
f 107/62/60 103/61/60 105/162/60 109/164/60
f 109/164/61 105/162/61 104/163/61 108/165/61
f 108/165/62 104/163/62 102/110/62 106/118/62
f 111/63/63 107/62/63 109/164/63 113/166/63
f 113/166/64 109/164/64 108/165/64 112/167/64
f 112/167/65 108/165/65 106/118/65 110/124/65
f 115/64/66 111/63/66 113/166/66 117/168/66
f 117/168/67 113/166/67 112/167/67 116/169/67
f 116/169/68 112/167/68 110/124/68 114/131/68
f 119/65/69 115/64/69 117/168/69 121/170/69
f 121/170/70 117/168/70 116/169/70 120/171/70
f 120/171/71 116/169/71 114/131/71 118/143/71
f 123/66/72 119/65/72 121/170/72 125/172/72
f 125/172/73 121/170/73 120/171/73 124/173/73
f 124/173/74 120/171/74 118/143/74 122/142/74
f 127/67/75 123/66/75 125/172/75 129/174/75
f 129/174/76 125/172/76 124/173/76 128/175/76
f 128/175/77 124/173/77 122/142/77 126/149/77
f 131/68/78 127/67/78 129/174/78 133/176/78
f 133/176/79 129/174/79 128/175/79 132/177/79
f 132/177/80 128/175/80 126/149/80 130/39/80
f 135/69/81 131/68/81 133/176/81 137/178/81
f 137/178/82 133/176/82 132/177/82 136/179/82
f 136/179/83 132/177/83 130/39/83 134/38/83
f 139/70/84 135/69/84 137/178/84 141/180/84
f 141/180/85 137/178/85 136/179/85 140/181/85
f 140/181/86 136/179/86 134/38/86 138/45/86
f 143/71/87 139/70/87 141/180/87 145/182/87
f 145/182/88 141/180/88 140/181/88 144/183/88
f 144/183/89 140/181/89 138/45/89 142/51/89
f 147/72/90 143/71/90 145/182/90 149/184/90
f 149/184/91 145/182/91 144/183/91 148/185/91
f 148/185/92 144/183/92 142/51/92 146/57/92
f 151/73/93 147/72/93 149/184/93 153/186/93
f 153/186/94 149/184/94 148/185/94 152/187/94
f 152/187/95 148/185/95 146/57/95 150/95/95
f 155/74/96 151/73/96 153/186/96 157/188/96
f 157/188/97 153/186/97 152/187/97 156/189/97
f 156/189/98 152/187/98 150/95/98 154/106/98
f 159/75/99 155/74/99 157/188/99 161/190/99
f 161/190/100 157/188/100 156/189/100 160/191/100
f 160/191/101 156/189/101 154/106/101 158/115/101
f 163/76/102 159/75/102 161/190/102 165/192/102
f 165/192/103 161/190/103 160/191/103 164/193/103
f 164/193/104 160/191/104 158/115/104 162/121/104
f 167/77/105 163/76/105 165/192/105 169/194/105
f 169/194/106 165/192/106 164/193/106 168/195/106
f 168/195/107 164/193/107 162/121/107 166/128/107
f 171/78/108 167/77/108 169/194/108 173/196/108
f 173/196/109 169/194/109 168/195/109 172/197/109
f 172/197/110 168/195/110 166/128/110 170/134/110
f 175/79/111 171/78/111 173/196/111 177/198/111
f 177/198/112 173/196/112 172/197/112 176/199/112
f 176/199/113 172/197/113 170/134/113 174/138/113
f 179/80/114 175/79/114 177/198/114 181/200/114
f 181/200/115 177/198/115 176/199/115 180/201/115
f 180/201/116 176/199/116 174/138/116 178/146/116
f 183/81/117 179/80/117 181/200/117 185/202/117
f 185/202/118 181/200/118 180/201/118 184/203/118
f 184/203/119 180/201/119 178/146/119 182/34/119
f 187/82/120 183/81/120 185/202/120 189/204/120
f 189/204/121 185/202/121 184/203/121 188/205/121
f 188/205/122 184/203/122 182/34/122 186/33/122
f 191/83/123 187/82/123 189/204/123 193/206/123
f 193/206/124 189/204/124 188/205/124 192/207/124
f 192/207/125 188/205/125 186/33/125 190/42/125
f 195/84/126 191/83/126 193/206/126 197/208/126
f 197/208/127 193/206/127 192/207/127 196/209/127
f 196/209/128 192/207/128 190/42/128 194/48/128
f 199/85/129 195/84/129 197/208/129 201/210/129
f 201/210/130 197/208/130 196/209/130 200/211/130
f 200/211/131 196/209/131 194/48/131 198/54/131
f 203/86/132 199/85/132 201/210/132 205/212/132
f 205/212/133 201/210/133 200/211/133 204/213/133
f 204/213/134 200/211/134 198/54/134 202/92/134
f 207/87/135 203/86/135 205/212/135 209/214/135
f 209/214/136 205/212/136 204/213/136 208/215/136
f 208/215/137 204/213/137 202/92/137 206/103/137
f 211/88/138 207/87/138 209/214/138 213/216/138
f 213/216/139 209/214/139 208/215/139 212/217/139
f 212/217/140 208/215/140 206/103/140 210/100/140
f 90/89/141 211/88/141 213/216/141 92/154/141
f 92/154/142 213/216/142 212/217/142 93/156/142
f 93/156/143 212/217/143 210/100/143 91/99/143
f 17/98/144 53/153/144 18/25/144 86/29/144 91/99/144
