# Blender v2.93.4 OBJ File: 'mesaED.blend'
# www.blender.org
mtllib mesaEs.mtl
o Cube.001
v 1.000000 0.910282 -1.000000
v -0.899408 0.749196 -0.921160
v 1.000000 0.910282 1.000000
v -1.000000 0.910282 -1.000000
v 0.899408 0.749196 -0.921160
v -1.000000 0.910282 1.000000
v 1.000000 0.749196 1.000000
v -1.000000 0.749196 1.000000
v -1.000000 0.749196 -1.000000
v 1.000000 0.749196 -1.000000
v 0.899408 0.001745 -0.921160
v -0.899408 0.001745 -0.921160
v -1.000000 0.749196 -0.918502
v 1.000000 0.910282 -0.918502
v -1.000000 0.910282 -0.918502
v 1.000000 0.749196 -0.918502
v -0.899408 0.749196 -0.846087
v 0.899408 0.749196 -0.846087
v 0.899408 0.001745 -0.846087
v -0.899408 0.001745 -0.846087
v 0.827496 0.001745 -0.921160
v 0.827496 0.001745 0.921160
v 0.827496 0.749196 -0.921160
v 0.827496 0.749196 0.921160
v 0.920045 0.910282 -1.000000
v 0.920045 0.910282 1.000000
v 0.920045 0.749196 -1.000000
v 0.920045 0.749196 1.000000
v 0.899408 0.749196 0.921160
v -0.899408 0.749196 0.921160
v 0.899408 0.001745 0.921160
v -0.899408 0.001745 0.921160
v 0.827496 0.001745 -0.846087
v 0.920045 0.910282 -0.918502
v 1.000000 1.017980 -0.918502
v 1.000000 1.017980 1.000000
v -1.000000 1.017980 -1.000000
v 0.920045 1.017980 -1.000000
v 1.000000 1.017980 -1.000000
v -1.000000 1.002985 -0.918502
v -1.000000 1.017980 -0.933498
v -1.000000 1.010482 -0.920511
v -1.000000 1.015971 -0.926000
v 0.920045 1.002985 -0.918502
v 0.935040 1.017980 -0.933498
v 0.922054 1.010482 -0.920511
v 0.927542 1.015971 -0.926000
v 0.935040 1.017980 1.000000
v 0.920045 1.002985 1.000000
v 0.927542 1.015971 1.000000
v 0.922054 1.010482 1.000000
vt 0.625000 0.510187
vt 0.633120 0.508313
vt 0.633120 0.750000
vt 0.625000 0.750000
vt 0.631751 0.506944
vt 0.625000 0.500000
vt 0.625000 0.490006
vt 0.625000 0.490006
vt 0.625000 0.250000
vt 0.625000 0.250000
vt 0.875000 0.510187
vt 0.634994 0.510187
vt 0.634994 0.510187
vt 0.875000 0.510187
vt 0.625000 0.759994
vt 0.625000 0.750000
vt 0.625000 0.758120
vt 0.631038 0.753019
vt 0.631663 0.753248
vt 0.625000 0.759994
vt 0.634994 0.750000
vt 0.634994 0.750000
vt 0.625000 0.510187
vt 0.625000 0.500000
vt 0.625000 0.239813
vt 0.625000 0.239813
vt 0.791667 0.420146
vt 0.776333 0.404417
vt 0.625000 0.241687
vt 0.634869 0.510062
vt 0.633913 0.509105
vt 0.632495 0.507688
vt 0.829000 0.462313
vt 0.588042 0.501862
vt 0.588042 0.692430
vt 0.588042 0.692430
vt 0.588042 0.501862
vt 0.588042 0.491719
vt 0.588042 0.248138
vt 0.588042 0.256233
vt 0.588042 0.484271
vt 0.588042 0.484271
vt 0.588042 0.493767
vt 0.588042 0.493767
vt 0.588042 0.248138
vt 0.588042 0.256233
vt 0.588042 0.057570
vt 0.588042 0.057570
vt 0.588042 0.667049
vt 0.875000 0.750000
vt 0.588042 0.759994
vt 0.625000 1.000000
vt 0.588042 1.000000
vt 0.588042 0.239813
vt 0.588042 0.250000
vt 0.588042 0.510187
vt 0.588042 0.750000
vt 0.588042 0.490006
vt 0.588042 0.500000
vt 0.588042 0.667049
vt 0.588042 0.720017
vt 0.588042 0.000000
vt 0.625000 0.000000
vn 0.0000 1.0000 0.0000
vn 0.0000 0.0000 -1.0000
vn 0.0000 0.0000 1.0000
vn -1.0000 0.0000 0.0000
vn 1.0000 0.0000 0.0000
vn 0.0000 0.2588 0.9659
vn 0.0000 0.7071 0.7071
vn 0.0000 0.9659 0.2588
vn -0.9659 0.2588 0.0000
vn -0.7071 0.7071 0.0000
vn -0.2588 0.9659 0.0000
vn 0.0000 -1.0000 0.0000
usemtl Madera
s off
f 35/1/1 45/2/1 48/3/1 36/4/1
f 45/5/1 35/1/1 39/6/1 38/7/1
f 25/8/2 4/9/2 37/10/2 38/7/2
f 15/11/3 34/12/3 44/13/3 40/14/3
f 26/15/3 3/16/3 36/4/3 48/17/3 50/18/3 51/19/3 49/20/3
f 34/12/4 26/21/4 49/22/4 44/13/4
f 3/16/5 14/23/5 35/1/5 36/4/5
f 14/23/5 1/24/5 39/6/5 35/1/5
f 4/9/4 15/25/4 40/26/4 42/27/4 43/28/4 41/29/4 37/10/4
f 1/24/2 25/8/2 38/7/2 39/6/2
f 40/14/6 44/13/6 46/30/6 42/27/6
f 42/27/7 46/30/7 47/31/7 43/28/7
f 43/28/8 47/31/8 45/32/8 41/33/8
f 44/13/9 49/22/9 51/19/9 46/30/9
f 46/30/10 51/19/10 50/18/10 47/31/10
f 47/31/11 50/18/11 48/3/11 45/2/11
f 41/33/1 45/32/1 38/7/1 37/10/1
usemtl Madera2
f 18/34/5 29/35/5 31/36/5 19/37/5
f 33/38/12 20/39/12 12/40/12 21/41/12
f 23/42/2 5/43/2 11/44/2 21/41/2
f 17/45/4 2/46/4 12/40/4 20/39/4
f 30/47/4 17/45/4 20/39/4 32/48/4
f 22/49/12 32/48/12 20/39/12 33/38/12
f 5/43/5 18/34/5 19/37/5 11/44/5
f 2/46/2 23/42/2 21/41/2 12/40/2
f 31/36/12 22/49/12 33/38/12 19/37/12
f 19/37/12 33/38/12 21/41/12 11/44/12
f 31/36/3 29/35/3 30/47/3 32/48/3
usemtl Parte_de_madera
f 34/12/1 15/11/1 6/50/1 26/21/1
f 28/51/3 26/15/3 6/52/3 8/53/3
f 13/54/4 15/25/4 4/9/4 9/55/4
f 16/56/5 14/23/5 3/16/5 7/57/5
f 27/58/2 25/8/2 1/24/2 10/59/2
f 24/60/12 29/35/12 7/57/12 28/61/12
f 17/45/12 30/47/12 8/62/12 13/54/12
f 23/42/12 2/46/12 9/55/12 27/58/12
f 18/34/12 5/43/12 10/59/12 16/56/12
f 29/35/12 18/34/12 16/56/12 7/57/12
f 2/46/12 17/45/12 13/54/12 9/55/12
f 10/59/5 1/24/5 14/23/5 16/56/5
f 8/62/4 6/63/4 15/25/4 13/54/4
f 5/43/12 23/42/12 27/58/12 10/59/12
f 30/47/12 24/60/12 28/61/12 8/62/12
f 9/55/2 4/9/2 25/8/2 27/58/2
f 7/57/3 3/16/3 26/15/3 28/51/3
